<svg aria-hidden="true" style="position: absolute; width: 0; height: 0; overflow: hidden;" version="1.1" xmlns="http://www.w3.org/2000/svg" xmlns:xlink="http://www.w3.org/1999/xlink">
<defs>
<symbol id="icon-accurate" viewBox="0 0 32 32">
<title>accurate</title>
<path fill="#4d4949" style="fill: var(--color1, #4d4949)" d="M28.062 22.211v-8.192c0-0.265-0.212-0.48-0.474-0.48s-0.474 0.215-0.474 0.48v7.712h-18.629l-0.564-0.329c-0.026-0.015-0.053-0.028-0.081-0.037v-3.953c0-0.265-0.212-0.48-0.474-0.48s-0.474 0.215-0.474 0.48v4.8c0 0.265 0.212 0.48 0.474 0.48h12.991l-0.267 0.468c-0.119 0.209-0.063 0.483 0.129 0.626 0.225 0.168 0.552 0.098 0.692-0.146l0.379-0.665c0.051-0.089 0.070-0.188 0.061-0.283h6.236c0.262 0 0.474-0.215 0.474-0.48v0z"></path>
<path fill="#4d4949" style="fill: var(--color1, #4d4949)" d="M9.090 2.766c-0.252-0.12-0.575-0.049-0.72 0.16l-0.422 0.604c-0.146 0.209-0.059 0.475 0.193 0.596 0.083 0.040 0.174 0.059 0.263 0.059 0.182 0 0.36-0.078 0.457-0.218l0.422-0.604c0.146-0.209 0.059-0.475-0.193-0.596z"></path>
<path fill="#4d4949" style="fill: var(--color1, #4d4949)" d="M17.069 4.114c0.069 0.048 0.144 0.071 0.218 0.071 0.151 0 0.297-0.095 0.378-0.264 0.12-0.252 0.049-0.575-0.159-0.721l-0.604-0.422c-0.209-0.146-0.475-0.059-0.596 0.193s-0.049 0.575 0.16 0.72l0.604 0.422z"></path>
<path fill="#4d4949" style="fill: var(--color1, #4d4949)" d="M21.662 20.157l-0.422 0.604c-0.146 0.209-0.059 0.475 0.193 0.596 0.083 0.039 0.174 0.058 0.263 0.058 0.182 0 0.359-0.078 0.457-0.218l0.422-0.604c0.146-0.209 0.059-0.475-0.193-0.596s-0.575-0.049-0.721 0.16v0z"></path>
<path fill="#4d4949" style="fill: var(--color1, #4d4949)" d="M19.038 5.591c0.069 0.048 0.144 0.071 0.218 0.071 0.151 0 0.297-0.095 0.378-0.264 0.12-0.252 0.049-0.575-0.16-0.721l-0.604-0.422c-0.209-0.146-0.475-0.059-0.596 0.193s-0.049 0.575 0.16 0.721l0.604 0.422z"></path>
<path fill="#4d4949" style="fill: var(--color1, #4d4949)" d="M21.936 6.154l-0.604-0.422c-0.209-0.146-0.475-0.059-0.596 0.193s-0.049 0.575 0.16 0.721l0.604 0.422c0.069 0.048 0.144 0.071 0.218 0.071 0.151 0 0.297-0.094 0.378-0.264 0.12-0.252 0.049-0.575-0.16-0.721v0z"></path>
<path fill="#4d4949" style="fill: var(--color1, #4d4949)" d="M12.962 23.948c-0.209-0.146-0.476-0.059-0.596 0.193s-0.049 0.575 0.16 0.721l0.604 0.422c0.069 0.048 0.144 0.071 0.218 0.071 0.151 0 0.297-0.094 0.378-0.264 0.12-0.252 0.049-0.575-0.16-0.721l-0.604-0.422z"></path>
<path fill="#4d4949" style="fill: var(--color1, #4d4949)" d="M19.199 25.080l-0.422 0.605c-0.133 0.19-0.070 0.44 0.144 0.57 0.25 0.152 0.615 0.089 0.771-0.133l0.422-0.605c0.146-0.209 0.059-0.476-0.193-0.597s-0.575-0.049-0.721 0.16z"></path>
<path fill="#4d4949" style="fill: var(--color1, #4d4949)" d="M27.077 10.31l-0.422 0.604c-0.146 0.209-0.059 0.475 0.193 0.596 0.083 0.040 0.174 0.058 0.263 0.058 0.182 0 0.359-0.078 0.457-0.218l0.422-0.604c0.146-0.209 0.059-0.475-0.193-0.596s-0.575-0.049-0.72 0.16z"></path>
<path fill="#4d4949" style="fill: var(--color1, #4d4949)" d="M10.501 22.471c-0.209-0.146-0.475-0.059-0.596 0.193s-0.049 0.575 0.16 0.721l0.604 0.422c0.069 0.048 0.144 0.071 0.218 0.071 0.151 0 0.297-0.095 0.378-0.264 0.12-0.252 0.049-0.575-0.16-0.721l-0.604-0.422z"></path>
<path fill="#4d4949" style="fill: var(--color1, #4d4949)" d="M24.397 7.631l-0.604-0.422c-0.209-0.146-0.476-0.059-0.596 0.193s-0.049 0.575 0.16 0.72l0.604 0.422c0.069 0.048 0.144 0.071 0.218 0.071 0.151 0 0.297-0.095 0.378-0.264 0.12-0.252 0.049-0.575-0.16-0.72z"></path>
<path fill="#4d4949" style="fill: var(--color1, #4d4949)" d="M14.931 25.425c-0.209-0.146-0.475-0.059-0.596 0.193s-0.049 0.575 0.16 0.72l0.604 0.422c0.069 0.048 0.144 0.071 0.218 0.071 0.151 0 0.297-0.095 0.378-0.264 0.12-0.252 0.049-0.575-0.16-0.72l-0.604-0.422z"></path>
<path fill="#4d4949" style="fill: var(--color1, #4d4949)" d="M17.595 27.090l-0.25-0.189c-0.194-0.146-0.441-0.059-0.552 0.193s-0.045 0.575 0.148 0.72l0.56 0.422c0.064 0.048 0.133 0.071 0.202 0.071 0.14 0 0.276-0.095 0.351-0.264l0.108-0.244c0.112-0.252 0.045-0.575-0.148-0.72-0.134-0.101-0.295-0.090-0.418 0.010v0z"></path>
<path fill="#4d4949" style="fill: var(--color1, #4d4949)" d="M1.259 17.477l-0.604-0.422c-0.209-0.146-0.475-0.059-0.596 0.193s-0.049 0.575 0.16 0.721l0.604 0.422c0.069 0.048 0.144 0.071 0.218 0.071 0.151 0 0.297-0.094 0.378-0.264 0.12-0.252 0.049-0.575-0.16-0.721v0z"></path>
<path fill="#4d4949" style="fill: var(--color1, #4d4949)" d="M2.198 15.074c-0.252-0.121-0.575-0.049-0.72 0.16l-0.422 0.605c-0.146 0.209-0.059 0.476 0.193 0.596 0.249 0.119 0.577 0.046 0.72-0.16l0.422-0.605c0.146-0.209 0.059-0.476-0.193-0.596z"></path>
<path fill="#4d4949" style="fill: var(--color1, #4d4949)" d="M4.202 11.512c0.249 0.119 0.577 0.046 0.72-0.16l0.422-0.605c0.146-0.209 0.059-0.476-0.193-0.596s-0.575-0.049-0.721 0.16l-0.422 0.605c-0.146 0.209-0.059 0.476 0.193 0.596z"></path>
<path fill="#4d4949" style="fill: var(--color1, #4d4949)" d="M5.577 20.009c-0.209-0.146-0.475-0.059-0.596 0.193s-0.049 0.575 0.16 0.72l0.604 0.422c0.069 0.048 0.144 0.071 0.218 0.071 0.151 0 0.297-0.095 0.378-0.264 0.12-0.252 0.049-0.575-0.16-0.72l-0.604-0.422z"></path>
<path fill="#4d4949" style="fill: var(--color1, #4d4949)" d="M2.725 13.973c0.249 0.119 0.577 0.046 0.72-0.16l0.422-0.605c0.146-0.209 0.059-0.476-0.193-0.596s-0.575-0.049-0.72 0.16l-0.422 0.605c-0.146 0.209-0.059 0.476 0.193 0.596z"></path>
<path fill="#4d4949" style="fill: var(--color1, #4d4949)" d="M3.502 19.938c0.151 0 0.297-0.095 0.378-0.264 0.12-0.252 0.049-0.575-0.159-0.72l-0.604-0.422c-0.209-0.146-0.475-0.059-0.596 0.193s-0.049 0.575 0.16 0.72l0.604 0.422c0.069 0.048 0.143 0.071 0.218 0.071v0z"></path>
<path fill="#4d4949" style="fill: var(--color1, #4d4949)" d="M5.187 9.050c0.249 0.119 0.577 0.046 0.721-0.16l0.422-0.605c0.146-0.209 0.059-0.476-0.193-0.596s-0.575-0.049-0.721 0.16l-0.422 0.605c-0.146 0.209-0.059 0.476 0.193 0.596z"></path>
<path fill="#4d4949" style="fill: var(--color1, #4d4949)" d="M25.864 13.972c0.083 0.040 0.174 0.058 0.263 0.058 0.182 0 0.36-0.078 0.457-0.218l0.422-0.604c0.146-0.209 0.059-0.475-0.193-0.596s-0.575-0.049-0.72 0.16l-0.422 0.604c-0.146 0.209-0.059 0.475 0.193 0.596v0z"></path>
<path fill="#4d4949" style="fill: var(--color1, #4d4949)" d="M25.818 9.6l0.604 0.422c0.069 0.048 0.144 0.071 0.218 0.071 0.151 0 0.297-0.095 0.378-0.264 0.12-0.252 0.049-0.575-0.16-0.72l-0.604-0.422c-0.209-0.145-0.475-0.059-0.596 0.193s-0.049 0.575 0.16 0.72v0z"></path>
<path fill="#4d4949" style="fill: var(--color1, #4d4949)" d="M24.616 15.234l-0.422 0.604c-0.146 0.209-0.059 0.475 0.193 0.596 0.083 0.040 0.174 0.059 0.263 0.059 0.182 0 0.36-0.078 0.457-0.218l0.422-0.604c0.146-0.209 0.059-0.475-0.193-0.596s-0.575-0.049-0.721 0.16v0z"></path>
<path fill="#4d4949" style="fill: var(--color1, #4d4949)" d="M7.126 6.608c0.031 0.018 0.063 0.031 0.095 0.042v8.386c0 0.261 0.209 0.472 0.467 0.472s0.467-0.212 0.467-0.472v-9.29c0.061-0.131 0.057-0.278 0-0.402v-2.937h5.778c0.034 0.042 0.076 0.079 0.126 0.108l0.647 0.378c0.073 0.043 0.154 0.063 0.233 0.063 0.161 0 0.318-0.085 0.404-0.236 0.056-0.098 0.073-0.209 0.056-0.313h11.731v5.574c0 0.261 0.209 0.472 0.467 0.472s0.467-0.211 0.467-0.472v-6.047c0-0.261-0.209-0.473-0.467-0.473h-14.732c0.042-0.035 0.079-0.077 0.108-0.128 0.129-0.226 0.052-0.515-0.171-0.645l-0.647-0.378c-0.223-0.13-0.508-0.053-0.637 0.173s-0.052 0.515 0.171 0.645l0.57 0.333h-1.658l0.274-0.481c0.129-0.226 0.053-0.515-0.171-0.645s-0.509-0.053-0.637 0.173l-0.373 0.655c-0.054 0.094-0.071 0.199-0.058 0.299h-1.947c-0.258 0-0.467 0.212-0.467 0.473v3.562l-0.266 0.467c-0.129 0.226-0.052 0.515 0.171 0.645z"></path>
<path fill="#4d4949" style="fill: var(--color1, #4d4949)" d="M22.91 18.895c0.083 0.040 0.174 0.058 0.263 0.058 0.182 0 0.359-0.078 0.457-0.218l0.422-0.604c0.146-0.209 0.059-0.475-0.193-0.596s-0.575-0.049-0.721 0.16l-0.422 0.604c-0.146 0.209-0.059 0.475 0.193 0.596v0z"></path>
<path fill="#4d4949" style="fill: var(--color1, #4d4949)" d="M12.308 3.692c-0.257 0-0.466 0.209-0.466 0.466v1.081c-0.705 0.173-1.261 0.729-1.434 1.434h-1.081c-0.257 0-0.466 0.209-0.466 0.466s0.209 0.466 0.466 0.466h1.081c0.173 0.705 0.729 1.261 1.434 1.434v1.081c0 0.257 0.209 0.466 0.466 0.466s0.466-0.209 0.466-0.466v-1.081c0.705-0.173 1.261-0.729 1.434-1.434h1.081c0.257 0 0.466-0.208 0.466-0.466s-0.209-0.466-0.466-0.466h-1.081c-0.173-0.705-0.729-1.261-1.434-1.434v-1.081c0-0.257-0.209-0.466-0.466-0.466zM13.332 7.138c0 0.565-0.46 1.025-1.025 1.025s-1.025-0.46-1.025-1.025c0-0.565 0.46-1.025 1.025-1.025s1.025 0.46 1.025 1.025z"></path>
<path fill="#4d4949" style="fill: var(--color1, #4d4949)" d="M31.529 15.508c-0.26 0-0.471 0.214-0.471 0.478 0 8.168-6.543 14.813-14.586 14.813-4.72 0-9.111-2.3-11.854-6.18h2.82c0.26 0 0.471-0.214 0.471-0.478s-0.211-0.478-0.471-0.478h-4.015c-0.26 0-0.471 0.214-0.471 0.478v4.078c0 0.264 0.211 0.478 0.471 0.478s0.47-0.214 0.47-0.478v-2.986c2.921 4.096 7.577 6.522 12.578 6.522 4.147 0 8.046-1.64 10.979-4.618s4.548-6.938 4.548-11.15c0-0.264-0.211-0.478-0.471-0.478z"></path>
</symbol>
<symbol id="icon-arrow" viewBox="0 0 32 32">
<title>arrow</title>
<path d="M15.999 22.585l-13.649-15.194c-0.336-0.374-0.874-0.374-1.21 0s-0.336 0.973 0 1.347l14.257 15.871c0.336 0.374 0.874 0.374 1.21 0l14.251-15.871c0.165-0.183 0.253-0.43 0.253-0.67s-0.082-0.486-0.253-0.67c-0.336-0.374-0.874-0.374-1.21 0l-13.649 15.187z"></path>
</symbol>
<symbol id="icon-attach" viewBox="0 0 32 32">
<title>attach</title>
<path fill="#fff" style="fill: var(--color2, #fff)" d="M28.988 2.2c-2.635-2.8-6.965-2.8-9.6 0l-8.282 8.6c-2.635 3-2.635 7.4 0 10.4 0.188 0.2 0.565 0.4 0.753 0.6l2.824-3c-0.188-0.2-0.565-0.4-0.753-0.6-1.129-1.2-1.129-3.2 0-4.4l8.282-8.8c1.129-1.2 3.012-1.2 4.141 0s1.129 3.2 0 4.4l-2.447 2.6c0.753 1.6 0.941 3.4 0.753 5l4.329-4.6c2.824-2.8 2.824-7.4 0-10.2v0z"></path>
<path fill="#fff" style="fill: var(--color2, #fff)" d="M20.141 10.2l-2.824 3c0 0 0.565 0.4 0.753 0.6 1.129 1.2 1.129 3.2 0 4.4l-8.282 8.8c-1.129 1.2-3.012 1.2-4.141 0s-1.129-3.2 0-4.4l2.447-2.6c-0.753-1.6-0.188-2.6-0.753-5l-4.329 4.6c-2.635 2.8-2.635 7.4 0 10.2s6.965 2.8 9.6 0l8.282-8.8c2.635-2.8 2.635-7.4 0-10.2-0.376-0.2-0.753-0.6-0.753-0.6z"></path>
</symbol>
<symbol id="icon-comment" viewBox="0 0 32 32">
<title>comment</title>
<path fill="#818181" style="fill: var(--color3, #818181)" d="M28.838 1.181l-18.209-0.038c-1.744 0-3.163 1.435-3.163 3.2v2.765l-4.304 0.009c-1.744 0-3.163 1.435-3.163 3.2v11.407c0 1.764 1.419 3.199 3.163 3.199h3.237v5.396c0 0.223 0.135 0.423 0.341 0.503 0.062 0.024 0.127 0.036 0.192 0.036 0.147 0 0.292-0.062 0.395-0.176l5.175-5.76 8.867-0.037c1.744 0 3.163-1.435 3.163-3.199v-0.061l2.805 3.122c0.103 0.114 0.247 0.176 0.395 0.176 0.065 0 0.13-0.012 0.192-0.036 0.206-0.080 0.341-0.281 0.341-0.503v-5.396h0.571c1.744 0 3.163-1.435 3.163-3.199v-11.408c0-1.764-1.418-3.199-3.162-3.2zM23.467 21.685c0 1.169-0.94 2.12-2.098 2.12l-9.104 0.038c-0.149 0.001-0.292 0.065-0.393 0.176l-4.405 4.903v-4.54c0-0.298-0.238-0.54-0.533-0.54h-3.771c-1.156 0-2.096-0.951-2.096-2.12v-11.407c0-1.169 0.94-2.12 2.097-2.12l4.836-0.010c0 0 0 0 0 0s0.001 0 0.001 0l13.37-0.028c1.156 0 2.096 0.951 2.096 2.12v11.407zM30.933 15.787c0 1.169-0.94 2.12-2.096 2.12h-1.104c-0.295 0-0.533 0.242-0.533 0.54v4.54l-2.667-2.968v-9.741c0-1.764-1.419-3.2-3.164-3.2l-12.836 0.026v-2.763c0-1.169 0.94-2.12 2.095-2.12l18.209 0.038c0.001 0 0.001 0 0.001 0 1.156 0 2.096 0.951 2.096 2.12v11.407h-0.001z"></path>
</symbol>
<symbol id="icon-dribbble" viewBox="0 0 32 32">
<title>dribbble</title>
<path fill="#4d4949" style="fill: var(--color1, #4d4949)" d="M16 0c-8.81 0-16 7.191-16 16s7.191 16 16 16c8.81 0 16-7.191 16-16s-7.191-16-16-16zM26.852 6.969c1.997 2.396 3.217 5.462 3.269 8.806-2.504-0.586-5.284-0.625-8.116-0.109-0.737 0.134-1.474 0.305-2.206 0.51-0.244-0.663-0.503-1.321-0.777-1.972-0.281-0.664-0.577-1.317-0.887-1.961 3.374-1.289 7.031-3.207 8.718-5.274zM16 1.875c3.676 0 7.028 1.412 9.544 3.721-0.981 1.338-3.777 3.286-8.264 4.966-1.566-2.916-3.444-5.596-5.614-8.006 1.366-0.442 2.823-0.681 4.334-0.681zM9.809 3.306c2.213 2.371 4.117 5.018 5.685 7.878-4.668 1.511-9.393 2.127-13.279 1.729 0.946-4.228 3.793-7.746 7.594-9.607zM1.875 16c0-0.415 0.019-0.826 0.054-1.231 0.858 0.091 1.752 0.136 2.676 0.136 3.646 0 7.741-0.701 11.763-2.033 0.614 1.256 1.166 2.549 1.652 3.873-1.568 0.564-3.094 1.281-4.527 2.134-3.514 2.092-6.084 4.783-7.151 7.419-2.748-2.579-4.468-6.241-4.468-10.298zM16 30.125c-3.018 0-5.818-0.952-8.116-2.571 0.713-2.407 3.123-5.012 6.569-7.064 1.214-0.724 2.634-1.406 4.18-1.96 1.096 3.444 1.767 7.079 1.98 10.821-1.446 0.501-2.998 0.774-4.613 0.774zM22.442 28.569c-0.26-3.645-0.939-7.194-2.028-10.602 3.038-0.835 6.411-1.115 9.611-0.285-0.566 4.751-3.499 8.786-7.582 10.887z"></path>
</symbol>
<symbol id="icon-hidepass" viewBox="0 0 32 32">
<title>hidepass</title>
<path fill="#4d4949" style="fill: var(--color1, #4d4949)" d="M27.601 11.665c-6.426-6.411-16.882-6.411-23.308 0l-4.292 4.281 4.399 4.388c3.213 3.205 7.433 4.808 11.654 4.808s8.441-1.603 11.654-4.808l4.292-4.282-4.399-4.388zM26.943 19.572c-6.005 5.99-15.775 5.99-21.78 0l-3.635-3.626 3.528-3.519c6.005-5.99 15.775-5.99 21.78 0l3.635 3.626-3.528 3.519z"></path>
<path fill="#4d4949" style="fill: var(--color1, #4d4949)" d="M15.429 11.429c-2.206 0-4 1.794-4 4 0 0.315 0.256 0.571 0.571 0.571s0.571-0.256 0.571-0.571c0-1.575 1.282-2.857 2.857-2.857 0.315 0 0.571-0.256 0.571-0.571s-0.255-0.571-0.571-0.571z"></path>
<path fill="#4d4949" style="fill: var(--color1, #4d4949)" d="M16 9.143c-3.781 0-6.857 3.076-6.857 6.857s3.076 6.857 6.857 6.857c3.781 0 6.857-3.076 6.857-6.857s-3.076-6.857-6.857-6.857zM16 21.802c-3.199 0-5.802-2.603-5.802-5.802s2.603-5.802 5.802-5.802c3.199 0 5.802 2.603 5.802 5.802s-2.603 5.802-5.802 5.802z"></path>
<path fill="none" stroke="#fff" style="stroke: var(--color2, #fff)" stroke-linejoin="miter" stroke-linecap="butt" stroke-miterlimit="4" stroke-width="2.2857" d="M25.032 6.968c-0.147-0.147-0.386-0.147-0.533 0l-17.531 17.532c-0.147 0.147-0.147 0.386 0 0.533 0.074 0.074 0.17 0.11 0.267 0.11s0.193-0.037 0.267-0.11l17.531-17.532c0.147-0.147 0.147-0.386 0-0.533z"></path>
<path fill="none" stroke="#4d4949" style="stroke: var(--color1, #4d4949)" stroke-linejoin="miter" stroke-linecap="butt" stroke-miterlimit="4" stroke-width="0.9143" d="M25.032 6.968c-0.147-0.147-0.386-0.147-0.533 0l-17.531 17.532c-0.147 0.147-0.147 0.386 0 0.533 0.074 0.074 0.17 0.11 0.267 0.11s0.193-0.037 0.267-0.11l17.531-17.532c0.147-0.147 0.147-0.386 0-0.533z"></path>
</symbol>
<symbol id="icon-iconset" viewBox="0 0 32 32">
<title>iconset</title>
<path fill="#4d4949" style="fill: var(--color1, #4d4949)" d="M17.157 21.576h-13.439c-0.324 0-0.587 0.262-0.587 0.584s0.263 0.584 0.587 0.584h13.439c0.324 0 0.587-0.262 0.587-0.584s-0.263-0.584-0.587-0.584z"></path>
<path fill="#4d4949" style="fill: var(--color1, #4d4949)" d="M24.385 5.371c-0.324 0-0.587 0.261-0.587 0.584v11.266l-5.198-7.242c-0.23-0.321-0.725-0.321-0.956 0l-5.886 8.201-4.522-3.938c-0.221-0.193-0.552-0.193-0.773 0l-2.863 2.493c-0.244 0.213-0.269 0.582-0.055 0.825s0.584 0.267 0.829 0.055l2.476-2.156 4.623 4.026c0.258 0.224 0.666 0.177 0.865-0.1l5.785-8.060 5.676 7.908v2.345h-3.823c-0.324 0-0.587 0.262-0.587 0.584s0.263 0.584 0.587 0.584h4.41c0.324 0 0.587-0.262 0.587-0.584v-16.205c0-0.323-0.263-0.584-0.587-0.584z"></path>
<path fill="#4d4949" style="fill: var(--color1, #4d4949)" d="M11.86 12.772c1.36 0 2.466-1.101 2.466-2.454s-1.106-2.454-2.466-2.454c-1.36 0-2.466 1.101-2.466 2.454s1.106 2.454 2.466 2.454zM11.86 9.033c0.712 0 1.292 0.577 1.292 1.285s-0.58 1.286-1.292 1.286-1.292-0.577-1.292-1.286c0-0.709 0.579-1.285 1.291-1.285z"></path>
<path fill="#4d4949" style="fill: var(--color1, #4d4949)" d="M5.835 27.186h-0.961c-0.324 0-0.587 0.262-0.587 0.584s0.263 0.584 0.587 0.584h0.961c0.324 0 0.587-0.262 0.587-0.584s-0.263-0.584-0.587-0.584z"></path>
<path fill="#4d4949" style="fill: var(--color1, #4d4949)" d="M9.36 27.186h-0.962c-0.324 0-0.587 0.262-0.587 0.584s0.263 0.584 0.587 0.584h0.962c0.324 0 0.587-0.262 0.587-0.584s-0.263-0.584-0.587-0.584z"></path>
<path fill="#4d4949" style="fill: var(--color1, #4d4949)" d="M19.937 27.186h-0.961c-0.324 0-0.587 0.262-0.587 0.584s0.263 0.584 0.587 0.584h0.961c0.324 0 0.587-0.262 0.587-0.584s-0.263-0.584-0.587-0.584z"></path>
<path fill="#4d4949" style="fill: var(--color1, #4d4949)" d="M26.988 27.186h-0.962c-0.324 0-0.587 0.262-0.587 0.584s0.263 0.584 0.587 0.584h0.962c0.324 0 0.587-0.262 0.587-0.584s-0.263-0.584-0.587-0.584v0z"></path>
<path fill="#4d4949" style="fill: var(--color1, #4d4949)" d="M12.886 27.186h-0.962c-0.324 0-0.587 0.262-0.587 0.584s0.263 0.584 0.587 0.584h0.962c0.324 0 0.587-0.262 0.587-0.584s-0.263-0.584-0.587-0.584z"></path>
<path fill="#4d4949" style="fill: var(--color1, #4d4949)" d="M23.462 27.186h-0.962c-0.324 0-0.587 0.262-0.587 0.584s0.263 0.584 0.587 0.584h0.962c0.324 0 0.587-0.262 0.587-0.584s-0.263-0.584-0.587-0.584v0z"></path>
<path fill="#4d4949" style="fill: var(--color1, #4d4949)" d="M16.411 27.186h-0.961c-0.324 0-0.587 0.262-0.587 0.584s0.263 0.584 0.587 0.584h0.961c0.324 0 0.587-0.262 0.587-0.584s-0.263-0.584-0.587-0.584z"></path>
<path fill="#4d4949" style="fill: var(--color1, #4d4949)" d="M1.84 23.337c-0.324 0-0.587 0.262-0.587 0.584v0.922c0 0.323 0.263 0.584 0.587 0.584s0.587-0.262 0.587-0.584v-0.922c0-0.323-0.263-0.584-0.587-0.584z"></path>
<path fill="#4d4949" style="fill: var(--color1, #4d4949)" d="M2.427 20.539c0-0.323-0.263-0.584-0.587-0.584s-0.587 0.262-0.587 0.584v0.922c0 0.323 0.263 0.584 0.587 0.584s0.587-0.262 0.587-0.584v-0.922z"></path>
<path fill="#4d4949" style="fill: var(--color1, #4d4949)" d="M2.427 17.157c0-0.323-0.263-0.584-0.587-0.584s-0.587 0.262-0.587 0.584v0.922c0 0.323 0.263 0.584 0.587 0.584s0.587-0.262 0.587-0.584v-0.922z"></path>
<path fill="#4d4949" style="fill: var(--color1, #4d4949)" d="M2.427 7.012c0-0.323-0.263-0.584-0.587-0.584s-0.587 0.261-0.587 0.584v0.922c0 0.323 0.263 0.584 0.587 0.584s0.587-0.261 0.587-0.584v-0.922z"></path>
<path fill="#4d4949" style="fill: var(--color1, #4d4949)" d="M2.427 10.394c0-0.323-0.263-0.584-0.587-0.584s-0.587 0.261-0.587 0.584v0.922c0 0.323 0.263 0.584 0.587 0.584s0.587-0.261 0.587-0.584v-0.922z"></path>
<path fill="#4d4949" style="fill: var(--color1, #4d4949)" d="M2.427 13.776c0-0.323-0.263-0.584-0.587-0.584s-0.587 0.262-0.587 0.584v0.922c0 0.323 0.263 0.584 0.587 0.584s0.587-0.262 0.587-0.584v-0.922z"></path>
<path fill="#4d4949" style="fill: var(--color1, #4d4949)" d="M18.975 4.67h0.961c0.324 0 0.587-0.261 0.587-0.584s-0.263-0.584-0.587-0.584h-0.961c-0.324 0-0.587 0.262-0.587 0.584s0.263 0.584 0.587 0.584z"></path>
<path fill="#4d4949" style="fill: var(--color1, #4d4949)" d="M11.924 4.67h0.962c0.324 0 0.587-0.261 0.587-0.584s-0.263-0.584-0.587-0.584h-0.962c-0.324 0-0.587 0.262-0.587 0.584s0.263 0.584 0.587 0.584z"></path>
<path fill="#4d4949" style="fill: var(--color1, #4d4949)" d="M22.501 4.67h0.962c0.324 0 0.587-0.261 0.587-0.584s-0.263-0.584-0.587-0.584h-0.962c-0.324 0-0.587 0.262-0.587 0.584s0.263 0.584 0.587 0.584v0z"></path>
<path fill="#4d4949" style="fill: var(--color1, #4d4949)" d="M15.45 4.67h0.961c0.324 0 0.587-0.261 0.587-0.584s-0.263-0.584-0.587-0.584h-0.961c-0.324 0-0.587 0.262-0.587 0.584s0.263 0.584 0.587 0.584z"></path>
<path fill="#4d4949" style="fill: var(--color1, #4d4949)" d="M26.988 3.501h-0.962c-0.324 0-0.587 0.262-0.587 0.584s0.263 0.584 0.587 0.584h0.962c0.324 0 0.587-0.261 0.587-0.584s-0.263-0.584-0.587-0.584v0z"></path>
<path fill="#4d4949" style="fill: var(--color1, #4d4949)" d="M8.399 4.67h0.962c0.324 0 0.587-0.261 0.587-0.584s-0.263-0.584-0.587-0.584h-0.962c-0.324 0-0.587 0.262-0.587 0.584s0.263 0.584 0.587 0.584z"></path>
<path fill="#4d4949" style="fill: var(--color1, #4d4949)" d="M4.873 4.67h0.961c0.324 0 0.587-0.261 0.587-0.584s-0.263-0.584-0.587-0.584h-0.961c-0.324 0-0.587 0.262-0.587 0.584s0.263 0.584 0.587 0.584z"></path>
<path fill="#4d4949" style="fill: var(--color1, #4d4949)" d="M30.609 20.539c0-0.323-0.263-0.584-0.587-0.584s-0.587 0.262-0.587 0.584v0.922c0 0.323 0.263 0.584 0.587 0.584s0.587-0.262 0.587-0.584v-0.922z"></path>
<path fill="#4d4949" style="fill: var(--color1, #4d4949)" d="M30.609 17.157c0-0.323-0.263-0.584-0.587-0.584s-0.587 0.262-0.587 0.584v0.922c0 0.323 0.263 0.584 0.587 0.584s0.587-0.262 0.587-0.584v-0.922z"></path>
<path fill="#4d4949" style="fill: var(--color1, #4d4949)" d="M30.609 13.776c0-0.323-0.263-0.584-0.587-0.584s-0.587 0.262-0.587 0.584v0.922c0 0.323 0.263 0.584 0.587 0.584s0.587-0.261 0.587-0.584v-0.922z"></path>
<path fill="#4d4949" style="fill: var(--color1, #4d4949)" d="M30.021 23.337c-0.324 0-0.587 0.262-0.587 0.584v0.922c0 0.323 0.263 0.584 0.587 0.584s0.587-0.262 0.587-0.584v-0.922c0-0.323-0.263-0.584-0.587-0.584z"></path>
<path fill="#4d4949" style="fill: var(--color1, #4d4949)" d="M30.609 10.394c0-0.323-0.263-0.584-0.587-0.584s-0.587 0.261-0.587 0.584v0.922c0 0.323 0.263 0.584 0.587 0.584s0.587-0.261 0.587-0.584v-0.922z"></path>
<path fill="#4d4949" style="fill: var(--color1, #4d4949)" d="M30.609 7.012c0-0.323-0.263-0.584-0.587-0.584s-0.587 0.261-0.587 0.584v0.922c0 0.323 0.263 0.584 0.587 0.584s0.587-0.261 0.587-0.584v-0.922z"></path>
<path fill="#4d4949" style="fill: var(--color1, #4d4949)" d="M0.587 5.916h2.505c0.324 0 0.587-0.261 0.587-0.584v-2.493c0-0.323-0.263-0.584-0.587-0.584h-2.505c-0.324 0-0.587 0.261-0.587 0.584v2.493c0 0.323 0.263 0.584 0.587 0.584zM1.174 3.423h1.331v1.324h-1.331v-1.324z"></path>
<path fill="#4d4949" style="fill: var(--color1, #4d4949)" d="M28.769 5.916h2.505c0.324 0 0.587-0.261 0.587-0.584v-2.493c0-0.323-0.263-0.584-0.587-0.584h-2.505c-0.324 0-0.587 0.261-0.587 0.584v2.493c0 0.323 0.263 0.584 0.587 0.584v0zM29.356 3.423h1.331v1.324h-1.331v-1.324z"></path>
<path fill="#4d4949" style="fill: var(--color1, #4d4949)" d="M3.092 25.939h-2.505c-0.324 0-0.587 0.262-0.587 0.584v2.493c0 0.323 0.263 0.584 0.587 0.584h2.505c0.324 0 0.587-0.262 0.587-0.584v-2.493c0-0.323-0.263-0.584-0.587-0.584zM2.505 28.432h-1.331v-1.325h1.331v1.325z"></path>
<path fill="#4d4949" style="fill: var(--color1, #4d4949)" d="M31.4 25.939h-2.505c-0.324 0-0.587 0.262-0.587 0.584v2.493c0 0.323 0.263 0.584 0.587 0.584h2.505c0.324 0 0.587-0.262 0.587-0.584v-2.493c0-0.323-0.263-0.584-0.587-0.584zM30.813 28.432h-1.331v-1.325h1.331v1.325z"></path>
</symbol>
<symbol id="icon-instagram" viewBox="0 0 32 32">
<title>instagram</title>
<path fill="#4d4949" style="fill: var(--color1, #4d4949)" d="M23.338 0h-14.676c-4.776 0-8.662 3.886-8.662 8.662v14.676c0 4.776 3.886 8.662 8.662 8.662h14.676c4.776 0 8.662-3.886 8.662-8.662v-14.676c0-4.776-3.886-8.662-8.662-8.662zM30.124 23.338c0 3.742-3.044 6.786-6.786 6.786h-14.676c-3.742 0-6.786-3.044-6.786-6.786v-14.676c0-3.742 3.044-6.786 6.786-6.786h14.676c3.742 0 6.786 3.044 6.786 6.786v14.676z"></path>
<path fill="#4d4949" style="fill: var(--color1, #4d4949)" d="M15.304 8.348c-4.603 0-8.348 3.745-8.348 8.348s3.745 8.348 8.348 8.348c4.603 0 8.348-3.745 8.348-8.348s-3.745-8.348-8.348-8.348zM15.304 23.254c-3.616 0-6.558-2.942-6.558-6.558s2.942-6.558 6.558-6.558c3.616 0 6.558 2.942 6.558 6.558s-2.942 6.558-6.558 6.558z"></path>
<path fill="#4d4949" style="fill: var(--color1, #4d4949)" d="M23.652 4.174c-1.534 0-2.782 1.248-2.782 2.782s1.248 2.783 2.782 2.783 2.783-1.248 2.783-2.783c0-1.534-1.248-2.782-2.783-2.782zM23.652 7.72c-0.421 0-0.764-0.343-0.764-0.764s0.343-0.764 0.764-0.764c0.421 0 0.764 0.342 0.764 0.764s-0.343 0.764-0.764 0.764z"></path>
</symbol>
<symbol id="icon-facebook" viewBox="0 0 32 32">
<title>facebook</title>
<path fill="#4d4949" style="fill: var(--color1, #4d4949)" d="M18.292 32h-5.496c-0.918 0-1.665-0.696-1.665-1.552v-11.559h-3.206c-0.918 0-1.665-0.697-1.665-1.552v-4.953c0-0.856 0.747-1.552 1.665-1.552h3.206v-2.48c0-2.459 0.828-4.551 2.395-6.050 1.574-1.506 3.773-2.301 6.359-2.301l4.191 0.006c0.916 0.001 1.662 0.698 1.662 1.552v4.599c0 0.856-0.746 1.552-1.664 1.552l-2.822 0.001c-0.861 0-1.080 0.161-1.127 0.21-0.077 0.082-0.169 0.313-0.169 0.951v1.959h3.906c0.294 0 0.579 0.068 0.824 0.195 0.528 0.275 0.856 0.795 0.856 1.358l-0.002 4.953c0 0.855-0.747 1.552-1.665 1.552h-3.919v11.559c0 0.856-0.747 1.552-1.665 1.552v0zM13.144 30.124h4.801v-12.075c0-0.572 0.499-1.036 1.111-1.036h4.473l0.002-4.305h-4.475c-0.613 0-1.111-0.465-1.111-1.036v-2.799c0-0.733 0.080-1.566 0.673-2.193 0.717-0.757 1.847-0.845 2.634-0.845l2.475-0.001v-3.952l-3.843-0.006c-4.157 0-6.741 2.481-6.741 6.476v3.32c0 0.571-0.499 1.036-1.111 1.036h-3.76v4.305h3.76c0.613 0 1.111 0.465 1.111 1.036v12.075z"></path>
</symbol>
<symbol id="icon-like-1" viewBox="0 0 32 32">
<title>like-1</title>
<path fill="#4d4949" style="fill: var(--color1, #4d4949)" d="M0 14.274v15.455c0 0.973 0.765 1.757 1.696 1.757h5.071c0.583 0 1.087-0.297 1.4-0.757 0.809 0.784 1.887 1.271 3.079 1.271h13.586c3.044 0 4.984-1.658 5.332-4.542l1.827-12.039c0.009-0.045 0.009-0.090 0.009-0.135 0-2.568-2.018-4.659-4.497-4.659h-6.793v-5.055c0-2.19-0.618-3.767-1.844-4.704-1.94-1.469-4.593-0.631-4.706-0.595-0.357 0.117-0.6 0.46-0.6 0.847v5.749c0 4.479-5.027 6.011-5.236 6.074-0.104 0.027-0.209 0.081-0.287 0.153-0.313-0.36-0.765-0.586-1.261-0.586h-5.080c-0.939 0-1.696 0.793-1.696 1.766zM8.472 14.689c0.104 0.009 0.209 0 0.313-0.027 0.27-0.081 6.497-1.947 6.497-7.786v-5.037c0.67-0.108 1.774-0.144 2.566 0.469 0.757 0.577 1.139 1.676 1.139 3.253v5.948c0 0.496 0.383 0.892 0.861 0.892h7.654c1.513 0 2.74 1.253 2.775 2.812l-1.818 11.976c0 0.009 0 0.018 0 0.027-0.235 1.983-1.453 2.983-3.627 2.983h-13.586c-1.531 0-2.775-1.289-2.775-2.875v-12.634zM1.722 14.292h5.027v15.41h-5.027v-15.41z"></path>
</symbol>
<symbol id="icon-like-2" viewBox="0 0 32 32">
<title>like-2</title>
<path fill="#4d4949" style="fill: var(--color1, #4d4949)" d="M0 14.274v15.455c0 0.973 0.765 1.757 1.696 1.757h5.071c0.583 0 1.087-0.297 1.4-0.757 0.809 0.784 1.887 1.271 3.079 1.271h13.586c3.044 0 4.984-1.658 5.332-4.542l1.827-12.039c0.009-0.045 0.009-0.090 0.009-0.135 0-2.568-2.018-4.659-4.497-4.659h-6.793v-5.055c0-2.19-0.618-3.767-1.844-4.704-1.94-1.469-4.593-0.631-4.706-0.595-0.357 0.117-0.6 0.46-0.6 0.847v5.749c0 4.479-5.027 6.011-5.236 6.074-0.104 0.027-0.209 0.081-0.287 0.153-0.313-0.36-0.765-0.586-1.261-0.586h-5.080c-0.939 0-1.696 0.793-1.696 1.766zM8.472 14.689c0.104 0.009 0.209 0 0.313-0.027 0.27-0.081 6.497-1.947 6.497-7.786v-5.037c0.67-0.108 1.774-0.144 2.566 0.469 0.757 0.577 1.139 1.676 1.139 3.253v5.948c0 0.496 0.383 0.892 0.861 0.892h7.654c1.513 0 2.74 1.253 2.775 2.812l-1.818 11.976c0 0.009 0 0.018 0 0.027-0.235 1.983-1.453 2.983-3.627 2.983h-13.586c-1.531 0-2.775-1.289-2.775-2.875v-12.634zM1.722 14.292h5.027v15.41h-5.027v-15.41z"></path>
</symbol>
<symbol id="icon-mail" viewBox="0 0 32 32">
<title>mail</title>
<path fill="#4d4949" style="fill: var(--color1, #4d4949)" d="M21.125 12.297c-0.132-0.132-0.316-0.208-0.503-0.208s-0.371 0.076-0.503 0.208c-0.132 0.132-0.208 0.316-0.208 0.503s0.076 0.371 0.208 0.503c0.132 0.132 0.316 0.208 0.503 0.208s0.37-0.076 0.503-0.208c0.132-0.132 0.208-0.316 0.208-0.503s-0.076-0.371-0.208-0.503z"></path>
<path fill="#4d4949" style="fill: var(--color1, #4d4949)" d="M31.215 0.353c-0.007-0.005-0.014-0.010-0.022-0.015-0.305-0.213-0.676-0.338-1.076-0.338h-17.569c-0.375 0-0.724 0.11-1.018 0.299-0.023 0.014-0.046 0.029-0.068 0.046-0.482 0.34-0.797 0.9-0.797 1.532v9.758c0 1.035 0.844 1.877 1.882 1.877h4.643c0.347 0 0.627-0.28 0.627-0.626s-0.281-0.626-0.627-0.626h-4.028l5.15-5.998 2.652 1.908c0.11 0.079 0.238 0.118 0.367 0.118s0.257-0.039 0.366-0.118l2.656-1.905 5.147 5.995h-6.412c-0.346 0-0.627 0.28-0.627 0.626s0.281 0.626 0.627 0.626h7.027c1.038 0 1.882-0.842 1.882-1.877v-9.758c0-0.627-0.31-1.182-0.785-1.523zM11.936 11.767c-0.009-0.043-0.014-0.087-0.014-0.133v-9.758c0-0.067 0.011-0.131 0.030-0.192l5.341 3.843-5.357 6.24zM21.334 6.892l-7.84-5.641h15.705l-7.865 5.641zM30.745 11.635c0 0.045-0.005 0.090-0.015 0.133l-5.353-6.235 5.342-3.831c0.016 0.056 0.026 0.114 0.026 0.175v9.758z"></path>
<path fill="#4d4949" style="fill: var(--color1, #4d4949)" d="M27.711 27.022c-0.11 0-0.214 0.022-0.308 0.063h-0.358c-0.405 0-0.734 0.304-0.734 0.68s0.328 0.68 0.734 0.68h0.666c0.405 0 0.734-0.304 0.734-0.68v-0.063c-0-0.375-0.328-0.68-0.734-0.68z"></path>
<path fill="#4d4949" style="fill: var(--color1, #4d4949)" d="M27.733 24.178c-0.393 0-0.711 0.318-0.711 0.711v0.711c0 0.393 0.318 0.711 0.711 0.711s0.711-0.318 0.711-0.711v-0.711c0-0.393-0.318-0.711-0.711-0.711z"></path>
<path fill="#4d4949" style="fill: var(--color1, #4d4949)" d="M24.889 27.022h-0.711c-0.393 0-0.711 0.318-0.711 0.711s0.318 0.711 0.711 0.711h0.711c0.393 0 0.711-0.318 0.711-0.711s-0.318-0.711-0.711-0.711z"></path>
<path fill="#4d4949" style="fill: var(--color1, #4d4949)" d="M27.733 14.933c-0.393 0-0.711 0.318-0.711 0.711v0.711c0 0.393 0.318 0.711 0.711 0.711s0.711-0.318 0.711-0.711v-0.711c0-0.393-0.318-0.711-0.711-0.711z"></path>
<path fill="#4d4949" style="fill: var(--color1, #4d4949)" d="M27.733 18.489c-0.393 0-0.711 0.318-0.711 0.711v0.711c0 0.393 0.318 0.711 0.711 0.711s0.711-0.318 0.711-0.711v-0.711c0-0.393-0.318-0.711-0.711-0.711z"></path>
<path fill="#4d4949" style="fill: var(--color1, #4d4949)" d="M27.733 21.333c-0.393 0-0.711 0.318-0.711 0.711v0.711c0 0.393 0.318 0.711 0.711 0.711s0.711-0.318 0.711-0.711v-0.711c0-0.393-0.318-0.711-0.711-0.711z"></path>
<path fill="#4d4949" style="fill: var(--color1, #4d4949)" d="M4.978 3.556h-0.711c-0.393 0-0.711 0.318-0.711 0.711s0.318 0.711 0.711 0.711h0.711c0.393 0 0.711-0.318 0.711-0.711s-0.318-0.711-0.711-0.711z"></path>
<path fill="#4d4949" style="fill: var(--color1, #4d4949)" d="M7.822 3.556h-0.711c-0.393 0-0.711 0.318-0.711 0.711s0.318 0.711 0.711 0.711h0.711c0.393 0 0.711-0.318 0.711-0.711s-0.318-0.711-0.711-0.711z"></path>
<path fill="#4d4949" style="fill: var(--color1, #4d4949)" d="M4.267 5.689c-0.393 0-0.711 0.318-0.711 0.711v0.711c0 0.393 0.318 0.711 0.711 0.711s0.711-0.318 0.711-0.711v-0.711c0-0.393-0.318-0.711-0.711-0.711z"></path>
<path fill="#4d4949" style="fill: var(--color1, #4d4949)" d="M4.267 8.533c-0.393 0-0.711 0.318-0.711 0.711v0.711c0 0.393 0.318 0.711 0.711 0.711s0.711-0.318 0.711-0.711v-0.711c0-0.393-0.318-0.711-0.711-0.711z"></path>
<path fill="#4d4949" style="fill: var(--color1, #4d4949)" d="M6.903 25.097c-0.132-0.132-0.316-0.208-0.503-0.208s-0.371 0.076-0.503 0.208c-0.132 0.132-0.208 0.316-0.208 0.503s0.075 0.37 0.208 0.503c0.133 0.132 0.316 0.208 0.503 0.208s0.37-0.076 0.503-0.208c0.132-0.132 0.208-0.316 0.208-0.503s-0.076-0.37-0.208-0.503z"></path>
<path fill="#4d4949" style="fill: var(--color1, #4d4949)" d="M19.21 26.072l-3.252-3.252c-0.933-0.933-2.452-0.933-3.385 0l-0.212 0.212c-0.294 0.294-0.773 0.294-1.067 0l-2.326-2.326c-0.143-0.143-0.221-0.332-0.221-0.534s0.079-0.391 0.221-0.534l0.212-0.212c0.933-0.933 0.933-2.452 0-3.385l-3.252-3.252c-0.933-0.933-2.452-0.933-3.385 0l-0.778 0.778c-2.353 2.354-2.353 6.183 0 8.537l2.121 2.121c0.241 0.241 0.632 0.241 0.873 0s0.241-0.632 0-0.873l-2.121-2.121c-1.872-1.872-1.872-4.919 0-6.791l0.778-0.778c0.452-0.452 1.187-0.452 1.639 0l3.252 3.252c0.452 0.452 0.452 1.187 0 1.639l-0.212 0.212c-0.078 0.078-0.148 0.161-0.211 0.249l-2.568-2.569c-0.241-0.241-0.632-0.241-0.873 0s-0.241 0.632 0 0.873l3.083 3.083c0.051 0.444 0.248 0.856 0.569 1.177l2.326 2.326c0.776 0.776 2.037 0.776 2.813-0l0.212-0.212c0.452-0.452 1.187-0.452 1.639 0l3.252 3.252c0.219 0.219 0.34 0.51 0.34 0.82s-0.121 0.601-0.34 0.82l-0.442 0.442-2.96-2.96c-0.241-0.241-0.632-0.241-0.873 0s-0.241 0.632 0 0.873l2.917 2.917c-1.876 1.36-4.522 1.196-6.211-0.494l-1.598-1.598c-0.241-0.241-0.632-0.241-0.873 0s-0.241 0.632 0 0.873l1.598 1.598c1.177 1.177 2.722 1.765 4.268 1.765s3.091-0.588 4.268-1.765l0.778-0.778c0.452-0.452 0.701-1.053 0.701-1.693s-0.249-1.241-0.701-1.693z"></path>
</symbol>
<symbol id="icon-melody" viewBox="0 0 32 32">
<title>melody</title>
<path fill="#d8d8d8" style="fill: var(--color4, #d8d8d8)" d="M30.603 0.144c-0.125-0.11-0.291-0.16-0.458-0.14l-17.992 2.334c-0.289 0.038-0.506 0.284-0.506 0.577v20.721c-1.060-1.277-2.744-2.108-4.643-2.108-3.2 0-5.804 2.349-5.804 5.236s2.604 5.236 5.804 5.236c3.2 0 5.804-2.349 5.804-5.236 0-0.135-0.011-0.268-0.023-0.4 0.008-0.038 0.023-0.072 0.023-0.112v-16.875l16.831-2.184v10.622c-1.060-1.277-2.744-2.107-4.643-2.107-3.2 0-5.804 2.349-5.804 5.236s2.604 5.236 5.804 5.236c3.171 0 5.753-2.308 5.8-5.159 0-0.008 0.004-0.014 0.004-0.022v-20.42c0-0.168-0.072-0.327-0.197-0.437zM7.004 30.836c-2.56 0-4.643-1.828-4.643-4.073s2.083-4.073 4.643-4.073c2.56 0 4.643 1.828 4.643 4.073s-2.083 4.073-4.643 4.073zM24.996 25.018c-2.56 0-4.643-1.828-4.643-4.073s2.083-4.073 4.643-4.073c2.56 0 4.643 1.828 4.643 4.073s-2.083 4.073-4.643 4.073zM12.808 8.204v-4.778l16.831-2.183v4.777l-16.831 2.184z"></path>
</symbol>
<symbol id="icon-picture" viewBox="0 0 32 32">
<title>picture</title>
<path fill="#d8d8d8" style="fill: var(--color4, #d8d8d8)" d="M29.241 0h-26.483c-1.523 0-2.759 1.236-2.759 2.759v26.483c0 1.523 1.236 2.759 2.759 2.759h26.483c1.523 0 2.759-1.236 2.759-2.759v-26.483c0-1.523-1.236-2.759-2.759-2.759zM1.103 2.759c0-0.916 0.739-1.655 1.655-1.655h26.483c0.916 0 1.655 0.739 1.655 1.655v17.302l-7.89-8.872c-0.011-0.011-0.022-0.011-0.033-0.022s-0.033-0.022-0.044-0.033c-0.011-0.011-0.033-0.022-0.044-0.033s-0.033-0.022-0.044-0.022c-0.022-0.011-0.033-0.011-0.055-0.022-0.011 0-0.033-0.011-0.044-0.011-0.022 0-0.033-0.011-0.055-0.011s-0.033 0-0.055 0c-0.022 0-0.033 0-0.055 0s-0.033 0-0.055 0c-0.022 0-0.033 0.011-0.055 0.011s-0.033 0.011-0.044 0.011-0.033 0.011-0.055 0.022c-0.011 0.011-0.033 0.011-0.044 0.022s-0.033 0.022-0.044 0.033c-0.011 0.011-0.022 0.011-0.033 0.022l-0.022 0.022-10.582 10.626-0.794-0.717c-0.221-0.199-0.552-0.188-0.761 0.022l-8.772 8.916c-0.132-0.243-0.21-0.508-0.21-0.806v-26.461zM2.141 30.775l8.364-8.497 9.578 8.618h-17.324c-0.221 0-0.43-0.044-0.618-0.121zM29.241 30.897h-7.514l-9.269-8.342 10.13-10.163 8.298 9.335v7.514c0.011 0.905-0.739 1.655-1.644 1.655z"></path>
<path fill="#d8d8d8" style="fill: var(--color4, #d8d8d8)" d="M12.8 10c0 1.546-1.254 2.8-2.8 2.8s-2.8-1.254-2.8-2.8c0-1.546 1.254-2.8 2.8-2.8s2.8 1.254 2.8 2.8z"></path>
<path fill="#d8d8d8" style="fill: var(--color4, #d8d8d8)" d="M3.482 12.8c0.158 0 0.282-0.124 0.282-0.282v-8.753h8.753c0.158 0 0.282-0.124 0.282-0.282s-0.124-0.282-0.282-0.282h-9.035c-0.158 0-0.282 0.124-0.282 0.282v9.035c0 0.158 0.124 0.282 0.282 0.282z"></path>
</symbol>
<symbol id="icon-play" viewBox="0 0 32 32">
<title>play</title>
<path fill="#4d4949" style="fill: var(--color1, #4d4949)" opacity="0.7" d="M32 16c0 8.837-7.163 16-16 16s-16-7.163-16-16c0-8.837 7.163-16 16-16s16 7.163 16 16z"></path>
<path fill="#fff" style="fill: var(--color2, #fff); stroke: var(--color2, #fff)" stroke="#fff" stroke-linejoin="miter" stroke-linecap="butt" stroke-miterlimit="4" stroke-width="0.4444" d="M13.658 11.092v10.464h0.686l6.719-5.322-7.405-5.142z"></path>
<path fill="#fff" style="fill: var(--color2, #fff)" d="M22.366 15.643l-8.853-6.192c-0.275-0.208-1.009-0.208-1.068 0.576v12.385c0.066 0.784 0.813 0.797 1.068 0.576l8.853-6.192c0.229-0.141 0.544-0.717 0-1.153zM13.814 21.091v-9.744l6.953 4.872-6.953 4.872z"></path>
</symbol>
<symbol id="icon-playmini" viewBox="0 0 32 32">
<title>playmini</title>
<path fill="#d8d8d8" style="fill: var(--color4, #d8d8d8)" d="M22.894 15.395l-9.007-6.472c-0.28-0.217-1.027-0.217-1.087 0.602v12.944c0.067 0.82 0.827 0.834 1.087 0.602l9.007-6.472c0.233-0.147 0.553-0.749 0-1.205zM14.193 21.089v-10.184l7.074 5.092-7.074 5.092z"></path>
<path fill="#d8d8d8" style="fill: var(--color4, #d8d8d8)" d="M16 0c-8.823 0-16 7.177-16 16s7.177 16 16 16c8.823 0 16-7.177 16-16s-7.177-16-16-16zM16 30.635c-8.072 0-14.635-6.563-14.635-14.635s6.563-14.635 14.635-14.635c8.072 0 14.635 6.563 14.635 14.635s-6.563 14.635-14.635 14.635z"></path>
</symbol>
<symbol id="icon-search-1" viewBox="0 0 32 32">
<title>search-1</title>
<path fill="#fff" style="fill: var(--color2,  #fff)" d="M23.483 20.655c1.575-2.15 2.517-4.792 2.517-7.655 0-7.168-5.832-13-13-13s-13 5.832-13 13c0 7.168 5.832 13 13 13 2.863 0 5.505-0.942 7.655-2.517l8.517 8.517 2.828-2.828c0-0-8.517-8.517-8.517-8.517v0zM13 22c-4.963 0-9-4.037-9-9s4.037-9 9-9c4.963 0 9 4.037 9 9s-4.037 9-9 9z"></path>
<path fill="none" stroke="#fff" style="stroke: var(--color2, #fff)" stroke-linejoin="miter" stroke-linecap="square" stroke-miterlimit="4" stroke-width="0.9412" d="M13.176 7.529v11.294"></path>
<path fill="none" stroke="#fff" style="stroke: var(--color2, #fff)" stroke-linejoin="miter" stroke-linecap="square" stroke-miterlimit="4" stroke-width="0.9412" d="M18.824 13.176h-11.294"></path>
</symbol>
<symbol id="icon-search-2" viewBox="0 0 32 32">
<title>search-1</title>
<path fill="#fff" style="fill: var(--color2, black)" d="M23.483 20.655c1.575-2.15 2.517-4.792 2.517-7.655 0-7.168-5.832-13-13-13s-13 5.832-13 13c0 7.168 5.832 13 13 13 2.863 0 5.505-0.942 7.655-2.517l8.517 8.517 2.828-2.828c0-0-8.517-8.517-8.517-8.517v0zM13 22c-4.963 0-9-4.037-9-9s4.037-9 9-9c4.963 0 9 4.037 9 9s-4.037 9-9 9z"></path>
<path fill="none" stroke="#fff" style="stroke: var(--color2, #fff)" stroke-linejoin="miter" stroke-linecap="square" stroke-miterlimit="4" stroke-width="0.9412" d="M13.176 7.529v11.294"></path>
<path fill="none" stroke="#fff" style="stroke: var(--color2, #fff)" stroke-linejoin="miter" stroke-linecap="square" stroke-miterlimit="4" stroke-width="0.9412" d="M18.824 13.176h-11.294"></path>
</symbol>
<symbol id="icon-showpass" viewBox="0 0 32 32">
<title>showpass</title>
<path fill="#4d4949" style="fill: var(--color1, #4d4949)" d="M27.601 11.665c-6.426-6.411-16.882-6.411-23.308 0l-4.292 4.281 4.399 4.388c3.213 3.205 7.433 4.808 11.654 4.808s8.441-1.603 11.654-4.808l4.292-4.282-4.399-4.388zM26.943 19.572c-6.005 5.99-15.775 5.99-21.78 0l-3.635-3.626 3.528-3.519c6.005-5.99 15.775-5.99 21.78 0l3.635 3.626-3.528 3.519z"></path>
<path fill="#4d4949" style="fill: var(--color1, #4d4949)" d="M15.429 11.429c-2.206 0-4 1.794-4 4 0 0.315 0.256 0.571 0.571 0.571s0.571-0.256 0.571-0.571c0-1.575 1.282-2.857 2.857-2.857 0.315 0 0.571-0.256 0.571-0.571s-0.255-0.571-0.571-0.571z"></path>
<path fill="#4d4949" style="fill: var(--color1, #4d4949)" d="M16 9.143c-3.781 0-6.857 3.076-6.857 6.857s3.076 6.857 6.857 6.857c3.781 0 6.857-3.076 6.857-6.857s-3.076-6.857-6.857-6.857zM16 21.802c-3.199 0-5.802-2.603-5.802-5.802s2.603-5.802 5.802-5.802c3.199 0 5.802 2.603 5.802 5.802s-2.603 5.802-5.802 5.802z"></path>
</symbol>
<symbol id="icon-text" viewBox="0 0 32 32">
<title>text</title>
<path fill="#d8d8d8" style="fill: var(--color4, #d8d8d8)" d="M23.269 0.213l-0.007-0.007c-0.129-0.134-0.308-0.208-0.494-0.206h-9.751c-1.893 0.001-3.428 1.539-3.428 3.437v1.437h-4.56c-1.893 0-3.428 1.538-3.429 3.436v20.254c0 1.898 1.535 3.436 3.429 3.436h13.954c1.893-0.001 3.428-1.539 3.428-3.436v-1.437h4.56c1.893-0 3.428-1.539 3.428-3.436v-16.055c-0.001-0.182-0.073-0.357-0.199-0.488l-6.933-6.935zM23.454 2.344l4.615 4.618h-2.558c-1.135-0.003-2.054-0.925-2.057-2.062v-2.557zM18.983 30.626h-13.954c-1.135-0.003-2.054-0.925-2.057-2.062v-20.254c0.003-1.137 0.922-2.059 2.057-2.062h5.006c0.155 0.055 0.325 0.055 0.48 0h3.586v3.526c0 1.898 1.535 3.436 3.429 3.437h3.518v15.354c-0.006 1.139-0.928 2.059-2.064 2.062zM20.087 11.835h-2.558c-1.135-0.003-2.054-0.924-2.057-2.062v-2.557l4.615 4.618zM26.971 25.753h-4.56v-13.244c-0.001-0.182-0.073-0.357-0.199-0.488l-6.933-6.942c-0.129-0.134-0.308-0.208-0.493-0.206h-3.827v-1.437c0.003-1.137 0.922-2.058 2.057-2.062h9.072v3.526c0 1.898 1.535 3.436 3.428 3.436h3.511v15.354c-0.003 1.137-0.923 2.058-2.057 2.062v0z"></path>
<path fill="#d8d8d8" style="fill: var(--color4, #d8d8d8)" d="M5.736 17.364h6.989c0.381 0 0.69-0.333 0.69-0.744s-0.309-0.744-0.69-0.744h-6.989c-0.381 0-0.69 0.333-0.69 0.744s0.309 0.744 0.69 0.744z"></path>
<path fill="#d8d8d8" style="fill: var(--color4, #d8d8d8)" d="M18.149 20.837h-12.422c-0.376 0-0.681 0.333-0.681 0.744s0.305 0.744 0.681 0.744h12.422c0.376 0 0.681-0.333 0.681-0.744s-0.305-0.744-0.681-0.744z"></path>
<path fill="#d8d8d8" style="fill: var(--color4, #d8d8d8)" d="M18.149 25.798h-12.422c-0.376 0-0.681 0.333-0.681 0.744s0.305 0.744 0.681 0.744h12.422c0.376 0 0.681-0.333 0.681-0.744s-0.305-0.744-0.681-0.744z"></path>
<path fill="#d8d8d8" style="fill: var(--color4, #d8d8d8)" d="M26.271 15.876h-2.081c-0.377 0-0.682 0.333-0.682 0.744s0.305 0.744 0.682 0.744h2.081c0.377 0 0.682-0.333 0.682-0.744s-0.306-0.744-0.682-0.744v0z"></path>
<path fill="#d8d8d8" style="fill: var(--color4, #d8d8d8)" d="M26.271 20.837h-2.081c-0.377 0-0.682 0.333-0.682 0.744s0.305 0.744 0.682 0.744h2.081c0.377 0 0.682-0.333 0.682-0.744s-0.306-0.744-0.682-0.744v0z"></path>
</symbol>
<symbol id="icon-time" viewBox="0 0 32 32">
<title>time</title>
<path fill="#818181" style="fill: var(--color3, #818181)" d="M16 0c-8.822 0-16 7.178-16 16s7.178 16 16 16c8.822 0 16-7.178 16-16s-7.178-16-16-16zM16 30.933c-8.234 0-14.933-6.699-14.933-14.933s6.699-14.933 14.933-14.933c8.234 0 14.933 6.699 14.933 14.933s-6.699 14.933-14.933 14.933z"></path>
<path fill="#818181" style="fill: var(--color3, #818181)" d="M16 3.2c-0.294 0-0.533 0.238-0.533 0.533v12.267h-8c-0.294 0-0.533 0.238-0.533 0.533s0.239 0.533 0.533 0.533h8.533c0.294 0 0.533-0.238 0.533-0.533v-12.8c0-0.295-0.239-0.533-0.533-0.533z"></path>
</symbol>
<symbol id="icon-typography" viewBox="0 0 32 32">
<title>typography</title>
<path fill="#4d4949" style="fill: var(--color1, #4d4949)" d="M18.271 24.456v-14.052h3.933l1.397 0.932c0.309 0.207 0.737-0.023 0.737-0.394v-5.059c0-0.262-0.212-0.474-0.474-0.474h-16.179c-0.262 0-0.474 0.212-0.474 0.474v5.059c0 0.371 0.427 0.601 0.737 0.394l1.397-0.932h3.933v1.549c0 0.262 0.212 0.474 0.474 0.474s0.474-0.212 0.474-0.474v-2.023c0-0.262-0.212-0.474-0.474-0.474h-4.55c-0.094 0-0.185 0.028-0.263 0.080l-0.78 0.52v-3.698h15.231v3.698l-0.78-0.52c-0.078-0.052-0.169-0.080-0.263-0.080h-4.55c-0.262 0-0.474 0.212-0.474 0.474v14.67c0 0.093 0.028 0.185 0.080 0.263l0.52 0.78h-4.296l0.52-0.78c0.052-0.078 0.080-0.17 0.080-0.263v-10.37c0-0.262-0.212-0.474-0.474-0.474s-0.474 0.212-0.474 0.474v10.227l-0.931 1.398c-0.206 0.31 0.023 0.737 0.394 0.737h6.067c0.371 0 0.601-0.427 0.394-0.737l-0.932-1.398z"></path>
<path fill="#4d4949" style="fill: var(--color1, #4d4949)" d="M26.173 6.31h0.386c0.267 0 0.483-0.202 0.483-0.451s-0.216-0.451-0.483-0.451h-0.386c-0.267 0-0.483 0.202-0.483 0.451s0.216 0.451 0.483 0.451z"></path>
<path fill="#4d4949" style="fill: var(--color1, #4d4949)" d="M28.444 6.31h0.801c0.277 0 0.501-0.202 0.501-0.451s-0.224-0.451-0.501-0.451h-0.801c-0.276 0-0.501 0.202-0.501 0.451s0.224 0.451 0.501 0.451z"></path>
<path fill="#4d4949" style="fill: var(--color1, #4d4949)" d="M31.131 6.31h0.386c0.267 0 0.483-0.202 0.483-0.451s-0.216-0.451-0.483-0.451h-0.386c-0.267 0-0.483 0.202-0.483 0.451s0.216 0.451 0.483 0.451z"></path>
<path fill="#4d4949" style="fill: var(--color1, #4d4949)" d="M26.173 11.268h0.386c0.267 0 0.483-0.202 0.483-0.451s-0.216-0.451-0.483-0.451h-0.386c-0.267 0-0.483 0.202-0.483 0.451s0.216 0.451 0.483 0.451z"></path>
<path fill="#4d4949" style="fill: var(--color1, #4d4949)" d="M28.444 11.268h0.801c0.277 0 0.501-0.202 0.501-0.451s-0.224-0.451-0.501-0.451h-0.801c-0.276 0-0.501 0.202-0.501 0.451s0.224 0.451 0.501 0.451z"></path>
<path fill="#4d4949" style="fill: var(--color1, #4d4949)" d="M31.517 10.366h-0.386c-0.267 0-0.483 0.202-0.483 0.451s0.216 0.451 0.483 0.451h0.386c0.267 0 0.483-0.202 0.483-0.451s-0.216-0.451-0.483-0.451z"></path>
<path fill="#4d4949" style="fill: var(--color1, #4d4949)" d="M0.483 6.31h0.386c0.267 0 0.483-0.202 0.483-0.451s-0.216-0.451-0.483-0.451h-0.386c-0.267 0-0.483 0.202-0.483 0.451s0.216 0.451 0.483 0.451z"></path>
<path fill="#4d4949" style="fill: var(--color1, #4d4949)" d="M2.754 6.31h0.801c0.276 0 0.501-0.202 0.501-0.451s-0.224-0.451-0.501-0.451h-0.801c-0.277 0-0.501 0.202-0.501 0.451s0.224 0.451 0.501 0.451z"></path>
<path fill="#4d4949" style="fill: var(--color1, #4d4949)" d="M5.441 6.31h0.386c0.267 0 0.483-0.202 0.483-0.451s-0.216-0.451-0.483-0.451h-0.386c-0.267 0-0.483 0.202-0.483 0.451s0.216 0.451 0.483 0.451z"></path>
<path fill="#4d4949" style="fill: var(--color1, #4d4949)" d="M1.352 10.817c0-0.249-0.216-0.451-0.483-0.451h-0.386c-0.267 0-0.483 0.202-0.483 0.451s0.216 0.451 0.483 0.451h0.386c0.267 0 0.483-0.202 0.483-0.451z"></path>
<path fill="#4d4949" style="fill: var(--color1, #4d4949)" d="M2.754 11.268h0.801c0.276 0 0.501-0.202 0.501-0.451s-0.224-0.451-0.501-0.451h-0.801c-0.277 0-0.501 0.202-0.501 0.451s0.224 0.451 0.501 0.451z"></path>
<path fill="#4d4949" style="fill: var(--color1, #4d4949)" d="M5.441 11.268h0.386c0.267 0 0.483-0.202 0.483-0.451s-0.216-0.451-0.483-0.451h-0.386c-0.267 0-0.483 0.202-0.483 0.451s0.216 0.451 0.483 0.451z"></path>
<path fill="#4d4949" style="fill: var(--color1, #4d4949)" d="M23.887 1.803c0.249 0 0.451-0.224 0.451-0.501v-0.801c0-0.277-0.202-0.501-0.451-0.501s-0.451 0.224-0.451 0.501v0.801c0 0.276 0.202 0.501 0.451 0.501z"></path>
<path fill="#4d4949" style="fill: var(--color1, #4d4949)" d="M23.887 4.507c0.249 0 0.451-0.224 0.451-0.501v-0.801c0-0.277-0.202-0.501-0.451-0.501s-0.451 0.224-0.451 0.501v0.801c0 0.276 0.202 0.501 0.451 0.501z"></path>
<path fill="#4d4949" style="fill: var(--color1, #4d4949)" d="M8.113 4.507c0.249 0 0.451-0.224 0.451-0.501v-0.801c0-0.277-0.202-0.501-0.451-0.501s-0.451 0.224-0.451 0.501v0.801c0 0.276 0.202 0.501 0.451 0.501z"></path>
<path fill="#4d4949" style="fill: var(--color1, #4d4949)" d="M8.113 1.803c0.249 0 0.451-0.224 0.451-0.501v-0.801c0-0.277-0.202-0.501-0.451-0.501s-0.451 0.224-0.451 0.501v0.801c0 0.276 0.202 0.501 0.451 0.501z"></path>
<path fill="#4d4949" style="fill: var(--color1, #4d4949)" d="M18.028 27.493c-0.249 0-0.451 0.224-0.451 0.501v0.801c0 0.277 0.202 0.501 0.451 0.501s0.451-0.224 0.451-0.501v-0.801c0-0.276-0.202-0.501-0.451-0.501z"></path>
<path fill="#4d4949" style="fill: var(--color1, #4d4949)" d="M18.028 30.197c-0.249 0-0.451 0.224-0.451 0.501v0.801c0 0.277 0.202 0.501 0.451 0.501s0.451-0.224 0.451-0.501v-0.801c0-0.276-0.202-0.501-0.451-0.501z"></path>
<path fill="#4d4949" style="fill: var(--color1, #4d4949)" d="M13.972 27.493c-0.249 0-0.451 0.224-0.451 0.501v0.801c0 0.277 0.202 0.501 0.451 0.501s0.451-0.224 0.451-0.501v-0.801c0-0.276-0.202-0.501-0.451-0.501z"></path>
<path fill="#4d4949" style="fill: var(--color1, #4d4949)" d="M13.972 30.197c-0.249 0-0.451 0.224-0.451 0.501v0.801c0 0.277 0.202 0.501 0.451 0.501s0.451-0.224 0.451-0.501v-0.801c0-0.276-0.202-0.501-0.451-0.501z"></path>
<path fill="#4d4949" style="fill: var(--color1, #4d4949)" d="M9.572 20.18c-0.087-0.087-0.204-0.136-0.326-0.136h-2.531c-0.222-1.396-1.433-2.467-2.888-2.467-1.613 0-2.925 1.314-2.925 2.93s1.312 2.93 2.925 2.93c1.456 0 2.666-1.071 2.888-2.467h2.34l2.328 2.332c0.188 0.188 0.505 0.175 0.678-0.027 0.155-0.181 0.144-0.459-0.024-0.628l-2.463-2.467zM3.827 22.511c-1.104 0-2.001-0.899-2.001-2.004s0.898-2.004 2.001-2.004c1.103 0 2.001 0.899 2.001 2.004s-0.898 2.004-2.001 2.004z"></path>
<path fill="#4d4949" style="fill: var(--color1, #4d4949)" d="M28.174 13.311c-1.456 0-2.666 1.109-2.888 2.556h-2.259l-2.331-4.353c-0.122-0.228-0.408-0.313-0.628-0.186s-0.302 0.423-0.18 0.652l2.463 4.6c0.082 0.152 0.236 0.247 0.404 0.247h2.531c0.222 1.446 1.433 2.556 2.888 2.556 1.613 0 2.925-1.361 2.925-3.035s-1.312-3.035-2.925-3.035zM28.174 18.422c-1.103 0-2.001-0.931-2.001-2.076s0.898-2.076 2.001-2.076c1.104 0 2.001 0.931 2.001 2.076s-0.898 2.076-2.001 2.076z"></path>
<path fill="#4d4949" style="fill: var(--color1, #4d4949)" d="M9.558 2.191c-0.138 0.188-0.122 0.465 0.044 0.631l1.516 1.546c0.193 0.196 0.518 0.183 0.695-0.028 0.159-0.189 0.147-0.48-0.025-0.656l-0.707-0.721h9.838l-0.707 0.721c-0.173 0.176-0.184 0.467-0.025 0.656 0.177 0.211 0.502 0.224 0.695 0.028l1.516-1.546c0.185-0.189 0.185-0.495 0-0.683l-1.516-1.546c-0.185-0.189-0.485-0.189-0.67 0s-0.185 0.495 0 0.683l0.707 0.721h-9.838l0.707-0.721c0.185-0.189 0.185-0.495 0-0.683s-0.485-0.189-0.67 0l-1.516 1.546c-0.016 0.016-0.031 0.034-0.044 0.053z"></path>
</symbol>
<symbol id="icon-Group" viewBox="0 0 32 32">
<title>Group</title>
<path fill="#deee23" style="fill: var(--color5, #deee23)" d="M16 25.143l-9.405 4.944 1.796-10.472-7.608-7.416 10.515-1.528 4.702-9.528 4.702 9.528 10.515 1.528-7.608 7.416 1.796 10.472z"></path>
<path fill="#d8d8d8" style="fill: var(--color4, #d8d8d8)" d="M16 25.143v-24l4.702 9.528 10.515 1.528-7.608 7.416 1.796 10.472z"></path>
</symbol>
<symbol id="icon-Star-1" viewBox="0 0 32 32">
<title>Star-1</title>
<path fill="#deee23" style="fill: var(--color5, #deee23)" d="M16 25.143l-9.405 4.944 1.796-10.472-7.608-7.416 10.515-1.528 4.702-9.528 4.702 9.528 10.515 1.528-7.608 7.416 1.796 10.472z"></path>
</symbol>
<symbol id="icon-Star-2" viewBox="0 0 32 32">
<title>Star-2</title>
<path fill="#d8d8d8" style="fill: var(--color4, #d8d8d8)" d="M16 25.143l-9.405 4.944 1.796-10.472-7.608-7.416 10.515-1.528 4.702-9.528 4.702 9.528 10.515 1.528-7.608 7.416 1.796 10.472z"></path>
</symbol>
</defs>
</svg>
